<?xml version="1.0" standalone="no"?>
<!DOCTYPE svg PUBLIC "-//W3C//DTD SVG 1.1//EN" "http://www.w3.org/Graphics/SVG/1.1/DTD/svg11.dtd">
<svg width="100%" height="100%" viewBox="0 0 1480 1480" version="1.1" xmlns="http://www.w3.org/2000/svg" xmlns:xlink="http://www.w3.org/1999/xlink" xml:space="preserve" style="fill-rule:evenodd;clip-rule:evenodd;stroke-linejoin:round;stroke-miterlimit:1.41421;">
    <g transform="matrix(8.33333,0,0,8.33333,-11187.1,-2601.42)">
        <path d="M1342.46,400.97C1342.46,450.013 1382.21,489.769 1431.26,489.769C1480.3,489.769 1520.06,450.013 1520.06,400.97C1520.06,371.691 1505.88,345.72 1484.03,329.545C1469.28,318.626 1451.02,312.17 1431.26,312.17C1382.21,312.17 1342.46,351.927 1342.46,400.97" style="fill:white;fill-rule:nonzero;"/>
    </g>
    <g transform="matrix(8.33333,0,0,8.33333,-11187.1,-2601.42)">
        <clipPath id="_clip1">
            <rect x="1355.11" y="324.824" width="152.289" height="152.291"/>
        </clipPath>
        <g clip-path="url(#_clip1)">
            <g opacity="0.160004">
                <clipPath id="_clip2">
                    <rect x="1355.11" y="324.824" width="152.29" height="152.291"/>
                </clipPath>
                <g clip-path="url(#_clip2)">
                    <path d="M1355.11,400.97C1355.11,443.023 1389.2,477.116 1431.26,477.116C1473.31,477.116 1507.4,443.023 1507.4,400.97C1507.4,375.862 1495.25,353.594 1476.51,339.722C1463.86,330.361 1448.2,324.823 1431.26,324.823C1389.2,324.823 1355.11,358.916 1355.11,400.97" style="fill:rgb(64,63,65);fill-rule:nonzero;"/>
                </g>
            </g>
        </g>
    </g>
    <g transform="matrix(8.33333,0,0,8.33333,-11187.1,-2601.42)">
        <path d="M1470.86,452.945C1471.74,447.125 1471.51,440.433 1469.81,432.807C1461.34,394.826 1452.52,364.109 1431.18,364.109C1409.85,364.109 1401.68,393.996 1392.56,432.807C1390.79,440.328 1390.5,446.945 1391.33,452.716C1402.33,461.325 1416.18,466.47 1431.24,466.47C1446.16,466.47 1459.9,461.417 1470.86,452.945" style="fill:rgb(243,121,120);fill-rule:nonzero;"/>
    </g>
    <g transform="matrix(8.33333,0,0,8.33333,-11187.1,-2601.42)">
        <path d="M1462.12,367.822C1462.12,372.094 1448.2,375.557 1431.04,375.557C1413.88,375.557 1399.97,372.094 1399.97,367.822C1399.97,363.55 1413.88,360.087 1431.04,360.087C1448.2,360.087 1462.12,363.55 1462.12,367.822" style="fill:rgb(255,196,45);fill-rule:nonzero;"/>
    </g>
    <g transform="matrix(8.33333,0,0,8.33333,-11187.1,-2601.42)">
        <path d="M1452.43,368.14L1409.65,368.14L1409.56,358.301C1409.56,353.728 1427.18,344.188 1433.61,344.188C1433.61,344.188 1452.43,351.159 1452.43,355.732L1452.43,368.14Z" style="fill:rgb(191,145,45);fill-rule:nonzero;"/>
    </g>
    <g transform="matrix(8.33333,0,0,8.33333,-11187.1,-2601.42)">
        <rect x="1410.33" y="363.77" width="42.107" height="3.416" style="fill:rgb(57,38,18);fill-rule:nonzero;"/>
    </g>
    <g transform="matrix(8.33333,0,0,8.33333,-11187.1,-2601.42)">
        <path d="M1438.48,390.225C1439.64,398.564 1443.85,404.87 1447.9,404.309C1451.95,403.749 1454.29,396.534 1453.13,388.194C1451.98,379.855 1447.76,373.549 1443.71,374.11C1439.67,374.67 1437.33,381.886 1438.48,390.225" style="fill:rgb(241,242,242);fill-rule:nonzero;"/>
    </g>
    <g transform="matrix(8.33333,0,0,8.33333,-11187.1,-2601.42)">
        <path d="M1438.19,390.147C1438.19,391.274 1439.1,392.188 1440.23,392.188C1441.36,392.188 1442.27,391.274 1442.27,390.147C1442.27,389.02 1441.36,388.106 1440.23,388.106C1439.1,388.106 1438.19,389.02 1438.19,390.147" style="fill:rgb(35,31,32);fill-rule:nonzero;"/>
    </g>
    <g transform="matrix(8.33333,0,0,8.33333,-11187.1,-2601.42)">
        <path d="M1423.53,390.225C1422.38,398.564 1418.16,404.87 1414.11,404.309C1410.07,403.749 1407.72,396.534 1408.88,388.194C1410.04,379.855 1414.25,373.549 1418.3,374.11C1422.35,374.67 1424.69,381.886 1423.53,390.225" style="fill:rgb(241,242,242);fill-rule:nonzero;"/>
    </g>
    <g transform="matrix(8.33333,0,0,8.33333,-11187.1,-2601.42)">
        <path d="M1422.4,390.147C1422.4,391.274 1421.49,392.188 1420.36,392.188C1419.24,392.188 1418.32,391.274 1418.32,390.147C1418.32,389.02 1419.24,388.106 1420.36,388.106C1421.49,388.106 1422.4,389.02 1422.4,390.147" style="fill:rgb(35,31,32);fill-rule:nonzero;"/>
    </g>
    <g transform="matrix(8.33333,0,0,8.33333,-11187.1,-2601.42)">
        <path d="M1444.81,407.282C1444.81,407.282 1434.98,394.12 1431.12,394.12C1427.26,394.12 1417.27,407.282 1417.27,407.282C1417.27,407.282 1426.78,416.544 1431.04,416.544C1435.31,416.544 1444.81,407.282 1444.81,407.282" style="fill:rgb(255,196,45);fill-rule:nonzero;"/>
    </g>
    <g transform="matrix(8.33333,0,0,8.33333,-11187.1,-2601.42)">
        <path d="M1444.81,406.435C1444.81,406.435 1434.98,398.996 1431.12,398.996C1427.26,398.996 1417.27,406.435 1417.27,406.435C1417.27,406.435 1426.78,411.67 1431.04,411.67C1435.31,411.67 1444.81,406.435 1444.81,406.435" style="fill:rgb(191,145,45);fill-rule:nonzero;"/>
    </g>
    <g transform="matrix(8.33333,0,0,8.33333,-11187.1,-2601.42)">
        <path d="M1416.95,378.143L1416.99,378.143L1417.02,378.143L1417.06,378.143L1417.09,378.144L1417.13,378.145L1417.16,378.145L1417.2,378.146L1417.24,378.147L1417.27,378.148L1417.31,378.149L1417.34,378.151L1417.38,378.152L1417.41,378.154L1417.45,378.155L1417.48,378.157L1417.52,378.159L1417.55,378.161L1417.59,378.163L1417.62,378.165L1417.66,378.167L1417.69,378.17L1417.73,378.172L1417.77,378.175L1417.8,378.178L1417.84,378.18L1417.87,378.183L1417.91,378.186L1417.94,378.19L1417.98,378.193L1418.01,378.196L1418.05,378.2L1418.08,378.203L1418.12,378.207L1418.15,378.211L1418.19,378.215L1418.22,378.219L1418.26,378.223L1418.29,378.227L1418.33,378.232L1418.36,378.236L1418.39,378.241L1418.43,378.245L1418.46,378.25L1418.5,378.255L1418.53,378.26L1418.57,378.265L1418.6,378.271L1418.67,378.281L1418.74,378.292L1418.81,378.304L1418.88,378.316L1418.94,378.328L1419.01,378.341L1419.08,378.354L1419.15,378.368L1419.22,378.382L1419.29,378.397L1419.35,378.412L1419.42,378.427L1419.49,378.443L1419.55,378.459L1419.62,378.475L1419.69,378.492L1419.75,378.51L1419.82,378.527L1419.89,378.545L1419.95,378.564L1420.02,378.583L1420.08,378.602L1420.15,378.622L1420.21,378.642L1420.28,378.663L1420.35,378.684L1420.41,378.705L1420.48,378.726L1420.54,378.749L1420.6,378.771L1420.67,378.794L1420.73,378.817L1420.8,378.841L1420.86,378.865L1420.92,378.889L1420.99,378.914L1421.05,378.939L1421.11,378.964L1421.17,378.99L1421.24,379.016L1421.3,379.043L1421.36,379.07L1421.42,379.097L1421.49,379.124L1421.55,379.153L1421.61,379.181L1421.67,379.21L1421.73,379.239L1421.79,379.268L1421.85,379.298L1421.91,379.328L1421.97,379.359L1422.03,379.389L1422.09,379.421L1422.15,379.452L1422.21,379.484L1422.27,379.516L1422.33,379.549L1422.38,379.582L1422.44,379.615L1422.5,379.649L1422.56,379.683L1422.62,379.717L1422.67,379.752L1422.73,379.787L1422.79,379.822L1422.84,379.857L1422.9,379.893L1422.96,379.93L1423.01,379.966L1423.07,380.003L1423.12,380.04L1423.18,380.078L1423.23,380.116L1423.29,380.154L1423.34,380.193L1423.4,380.231L1423.45,380.271L1423.51,380.31L1423.56,380.35L1423.61,380.39L1423.67,380.43L1423.72,380.471L1423.77,380.512L1423.82,380.554L1423.88,380.595L1423.93,380.637L1423.98,380.679L1424.03,380.722L1424.08,380.765L1424.13,380.808L1424.18,380.851L1424.23,380.895L1424.28,380.939L1424.33,380.983L1424.38,381.028L1424.43,381.073L1424.48,381.118L1424.53,381.164L1424.58,381.209L1424.62,381.255L1424.67,381.302L1424.72,381.348L1424.77,381.395L1424.81,381.443L1424.86,381.49L1424.91,381.538L1424.95,381.586L1425,381.634L1425.04,381.683L1425.09,381.731L1425.13,381.781L1425.18,381.83L1425.22,381.88L1425.27,381.93L1425.31,381.98L1425.35,382.03L1425.4,382.081L1425.44,382.132L1425.48,382.183L1425.52,382.235L1425.57,382.286L1425.61,382.338L1425.65,382.391L1425.69,382.443L1425.73,382.496L1425.77,382.549L1425.81,382.602L1425.85,382.656L1425.89,382.71L1425.93,382.764L1425.97,382.818L1426.01,382.872L1426.05,382.927L1426.08,382.982L1426.12,383.037L1426.16,383.093L1426.19,383.149L1426.23,383.205L1426.27,383.261L1426.3,383.317L1426.34,383.374L1426.38,383.431L1426.41,383.488L1426.44,383.545L1426.48,383.603L1426.51,383.661L1426.55,383.719L1426.58,383.777L1426.61,383.835L1426.64,383.894L1426.68,383.953L1426.71,384.012L1426.74,384.072L1426.77,384.131L1426.8,384.191L1426.83,384.251L1426.86,384.311L1426.89,384.372L1426.92,384.432L1426.95,384.493L1426.98,384.554L1427.01,384.615L1427.04,384.677L1427.06,384.738L1427.09,384.8L1427.12,384.862L1427.14,384.925L1427.17,384.987L1427.2,385.05L1427.22,385.113L1427.25,385.176L1427.27,385.239L1427.3,385.302L1427.32,385.366L1427.34,385.429L1427.37,385.493L1427.39,385.558L1427.41,385.622L1427.43,385.686L1427.46,385.751L1427.48,385.816L1427.5,385.881L1427.52,385.946L1427.54,386.012L1427.56,386.077L1427.58,386.143L1427.6,386.209L1427.62,386.275L1427.63,386.341L1427.65,386.407L1427.67,386.474L1427.69,386.541L1427.7,386.607L1427.72,386.674L1427.73,386.742L1427.75,386.809L1427.76,386.876L1427.78,386.944L1427.79,387.012L1427.81,387.08L1427.82,387.148L1427.83,387.216L1427.85,387.284L1427.86,387.353L1427.87,387.421L1427.88,387.49L1427.89,387.557L1427.9,387.594L1427.9,387.628L1427.91,387.662L1427.91,387.697L1427.92,387.732L1427.92,387.766L1427.92,387.801L1427.93,387.836L1427.93,387.871L1427.94,387.905L1427.94,387.94L1427.95,387.975L1427.95,388.01L1427.95,388.045L1427.96,388.08L1427.96,388.115L1427.96,388.15L1427.97,388.184L1427.97,388.219L1427.98,388.255L1427.98,388.29L1427.98,388.325L1427.98,388.36L1427.99,388.395L1427.99,388.43L1427.99,388.466L1427.99,388.501L1428,388.536L1428,388.572L1428,388.607L1428,388.642L1428,388.678L1428.01,388.713L1428.01,388.748L1428.01,388.784L1428.01,388.82L1428.01,388.855L1428.01,388.891L1428.01,388.926L1428.02,388.962L1428.02,388.997L1428.02,389.033L1428.02,389.069L1428.02,389.104L1428.02,389.14L1428.02,389.176L1428.02,389.212L1428.02,389.247L1428.02,389.283L1428.02,389.319L1428.02,389.355L1428.02,389.391L1428.02,389.426L1428.02,389.462L1428.02,389.498L1428.02,389.533L1428.01,389.569L1428.01,389.604L1428.01,389.64L1428.01,389.675L1428.01,389.711L1428.01,389.747L1428.01,389.782L1428,389.817L1428,389.853L1428,389.888L1428,389.923L1428,389.959L1427.99,389.994L1427.99,390.029L1427.99,390.065L1427.99,390.1L1427.98,390.135L1427.98,390.17L1427.98,390.205L1427.98,390.24L1427.97,390.276L1427.97,390.311L1427.96,390.345L1427.96,390.38L1427.96,390.415L1427.95,390.45L1427.95,390.485L1427.95,390.52L1427.94,390.555L1427.94,390.59L1427.93,390.624L1427.93,390.659L1427.92,390.694L1427.92,390.729L1427.92,390.763L1427.91,390.798L1427.91,390.833L1427.9,390.867L1427.9,390.901L1427.89,390.938L1427.88,391.005L1427.87,391.074L1427.86,391.142L1427.85,391.211L1427.83,391.279L1427.82,391.347L1427.81,391.415L1427.79,391.483L1427.78,391.551L1427.76,391.619L1427.75,391.686L1427.73,391.753L1427.72,391.821L1427.7,391.888L1427.69,391.954L1427.67,392.021L1427.65,392.088L1427.63,392.154L1427.62,392.22L1427.6,392.286L1427.58,392.352L1427.56,392.418L1427.54,392.483L1427.52,392.549L1427.5,392.614L1427.48,392.679L1427.46,392.744L1427.43,392.809L1427.41,392.873L1427.39,392.937L1427.37,393.002L1427.34,393.066L1427.32,393.129L1427.3,393.193L1427.27,393.256L1427.25,393.319L1427.22,393.382L1427.2,393.445L1427.17,393.508L1427.14,393.57L1427.12,393.633L1427.09,393.695L1427.06,393.757L1427.04,393.818L1427.01,393.88L1426.98,393.941L1426.95,394.002L1426.92,394.063L1426.89,394.123L1426.86,394.184L1426.83,394.244L1426.8,394.304L1426.77,394.364L1426.74,394.423L1426.71,394.483L1426.68,394.542L1426.64,394.601L1426.61,394.66L1426.58,394.718L1426.55,394.776L1426.51,394.834L1426.48,394.892L1426.44,394.95L1426.41,395.007L1426.38,395.064L1426.34,395.121L1426.3,395.178L1426.27,395.234L1426.23,395.29L1426.19,395.346L1426.16,395.402L1426.12,395.458L1426.08,395.513L1426.05,395.568L1426.01,395.623L1425.97,395.677L1425.93,395.731L1425.89,395.785L1425.85,395.839L1425.81,395.893L1425.77,395.946L1425.73,395.999L1425.69,396.052L1425.65,396.104L1425.61,396.157L1425.57,396.209L1425.52,396.26L1425.48,396.312L1425.44,396.363L1425.4,396.414L1425.35,396.465L1425.31,396.515L1425.27,396.565L1425.22,396.615L1425.18,396.665L1425.13,396.714L1425.09,396.764L1425.04,396.812L1425,396.861L1424.95,396.909L1424.91,396.957L1424.86,397.005L1424.81,397.052L1424.77,397.1L1424.72,397.147L1424.67,397.193L1424.62,397.24L1424.58,397.286L1424.53,397.331L1424.48,397.377L1424.43,397.422L1424.38,397.467L1424.33,397.512L1424.28,397.556L1424.23,397.6L1424.18,397.644L1424.13,397.687L1424.08,397.73L1424.03,397.773L1423.98,397.816L1423.93,397.858L1423.88,397.9L1423.82,397.941L1423.77,397.983L1423.72,398.024L1423.67,398.065L1423.61,398.105L1423.56,398.145L1423.51,398.185L1423.45,398.224L1423.4,398.264L1423.34,398.302L1423.29,398.341L1423.23,398.379L1423.18,398.417L1423.12,398.455L1423.07,398.492L1423.01,398.529L1422.96,398.565L1422.9,398.602L1422.84,398.638L1422.79,398.673L1422.73,398.708L1422.67,398.743L1422.62,398.778L1422.56,398.812L1422.5,398.846L1422.44,398.88L1422.38,398.913L1422.33,398.946L1422.27,398.979L1422.21,399.011L1422.15,399.043L1422.09,399.074L1422.03,399.106L1421.97,399.136L1421.91,399.167L1421.85,399.197L1421.79,399.227L1421.73,399.256L1421.67,399.285L1421.61,399.314L1421.55,399.342L1421.49,399.371L1421.42,399.398L1421.36,399.425L1421.3,399.452L1421.24,399.479L1421.17,399.505L1421.11,399.531L1421.05,399.556L1420.99,399.581L1420.92,399.606L1420.86,399.63L1420.8,399.654L1420.73,399.678L1420.67,399.701L1420.6,399.724L1420.54,399.746L1420.48,399.769L1420.41,399.79L1420.35,399.811L1420.28,399.832L1420.21,399.853L1420.15,399.873L1420.08,399.893L1420.02,399.912L1419.95,399.931L1419.89,399.95L1419.82,399.968L1419.75,399.985L1419.69,400.003L1419.62,400.02L1419.55,400.036L1419.49,400.052L1419.42,400.068L1419.35,400.083L1419.29,400.098L1419.22,400.113L1419.15,400.127L1419.08,400.141L1419.01,400.154L1418.95,400.167L1418.88,400.179L1418.81,400.191L1418.74,400.203L1418.67,400.214L1418.6,400.224L1418.57,400.23L1418.53,400.235L1418.5,400.24L1418.46,400.245L1418.43,400.25L1418.39,400.254L1418.36,400.259L1418.33,400.263L1418.29,400.268L1418.26,400.272L1418.22,400.276L1418.19,400.28L1418.15,400.284L1418.12,400.288L1418.08,400.292L1418.05,400.295L1418.01,400.299L1417.98,400.302L1417.94,400.305L1417.91,400.309L1417.87,400.312L1417.84,400.315L1417.8,400.317L1417.77,400.32L1417.73,400.323L1417.7,400.325L1417.66,400.328L1417.62,400.33L1417.59,400.332L1417.55,400.334L1417.52,400.336L1417.48,400.338L1417.45,400.34L1417.41,400.341L1417.38,400.343L1417.34,400.344L1417.31,400.346L1417.27,400.347L1417.24,400.348L1417.2,400.349L1417.16,400.35L1417.13,400.35L1417.09,400.351L1417.06,400.352L1417.02,400.352L1416.99,400.352L1416.95,400.352L1416.91,400.352L1416.88,400.352L1416.84,400.352L1416.81,400.352L1416.77,400.352L1416.74,400.351L1416.7,400.35L1416.66,400.35L1416.63,400.349L1416.59,400.348L1416.56,400.347L1416.52,400.346L1416.49,400.344L1416.45,400.343L1416.41,400.341L1416.38,400.34L1416.34,400.338L1416.31,400.336L1416.27,400.334L1416.24,400.332L1416.2,400.33L1416.17,400.328L1416.13,400.325L1416.1,400.323L1416.06,400.32L1416.03,400.317L1415.99,400.315L1415.96,400.312L1415.92,400.309L1415.89,400.305L1415.85,400.302L1415.82,400.299L1415.78,400.295L1415.75,400.292L1415.71,400.288L1415.68,400.284L1415.64,400.28L1415.61,400.276L1415.57,400.272L1415.54,400.268L1415.5,400.263L1415.47,400.259L1415.43,400.254L1415.4,400.25L1415.36,400.245L1415.33,400.24L1415.29,400.235L1415.26,400.23L1415.22,400.224L1415.16,400.214L1415.09,400.203L1415.02,400.191L1414.95,400.179L1414.88,400.167L1414.81,400.154L1414.75,400.141L1414.68,400.127L1414.61,400.113L1414.54,400.098L1414.48,400.083L1414.41,400.068L1414.34,400.052L1414.27,400.036L1414.21,400.02L1414.14,400.003L1414.07,399.985L1414.01,399.968L1413.94,399.949L1413.88,399.931L1413.81,399.912L1413.74,399.893L1413.68,399.873L1413.61,399.853L1413.55,399.832L1413.48,399.811L1413.42,399.79L1413.35,399.769L1413.29,399.746L1413.22,399.724L1413.16,399.701L1413.1,399.678L1413.03,399.654L1412.97,399.63L1412.9,399.606L1412.84,399.581L1412.78,399.556L1412.72,399.531L1412.65,399.505L1412.59,399.479L1412.53,399.452L1412.47,399.425L1412.4,399.398L1412.34,399.37L1412.28,399.342L1412.22,399.314L1412.16,399.285L1412.1,399.256L1412.04,399.227L1411.98,399.197L1411.92,399.167L1411.86,399.136L1411.8,399.105L1411.74,399.074L1411.68,399.043L1411.62,399.011L1411.56,398.979L1411.5,398.946L1411.44,398.913L1411.38,398.88L1411.33,398.846L1411.27,398.812L1411.21,398.778L1411.15,398.743L1411.1,398.708L1411.04,398.673L1410.98,398.637L1410.93,398.602L1410.87,398.565L1410.82,398.529L1410.76,398.492L1410.7,398.454L1410.65,398.417L1410.59,398.379L1410.54,398.341L1410.48,398.302L1410.43,398.263L1410.38,398.224L1410.32,398.185L1410.27,398.145L1410.21,398.105L1410.16,398.065L1410.11,398.024L1410.06,397.983L1410.01,397.941L1409.95,397.9L1409.9,397.858L1409.85,397.816L1409.8,397.773L1409.75,397.73L1409.7,397.687L1409.65,397.644L1409.6,397.6L1409.55,397.556L1409.5,397.512L1409.45,397.467L1409.4,397.422L1409.35,397.377L1409.3,397.331L1409.25,397.286L1409.2,397.239L1409.16,397.193L1409.11,397.147L1409.06,397.1L1409.02,397.052L1408.97,397.005L1408.92,396.957L1408.88,396.909L1408.83,396.861L1408.79,396.812L1408.74,396.764L1408.69,396.714L1408.65,396.665L1408.61,396.615L1408.56,396.565L1408.52,396.515L1408.47,396.465L1408.43,396.414L1408.39,396.363L1408.35,396.312L1408.3,396.26L1408.26,396.209L1408.22,396.157L1408.18,396.104L1408.14,396.052L1408.1,395.999L1408.06,395.946L1408.02,395.893L1407.98,395.839L1407.94,395.785L1407.9,395.731L1407.86,395.677L1407.82,395.622L1407.78,395.568L1407.75,395.513L1407.71,395.457L1407.67,395.402L1407.63,395.346L1407.6,395.29L1407.56,395.234L1407.52,395.178L1407.49,395.121L1407.45,395.064L1407.42,395.007L1407.38,394.95L1407.35,394.892L1407.32,394.834L1407.28,394.776L1407.25,394.718L1407.22,394.659L1407.18,394.601L1407.15,394.542L1407.12,394.483L1407.09,394.423L1407.06,394.364L1407.03,394.304L1407,394.244L1406.96,394.184L1406.93,394.123L1406.91,394.063L1406.88,394.002L1406.85,393.941L1406.82,393.88L1406.79,393.818L1406.76,393.757L1406.74,393.695L1406.71,393.633L1406.68,393.57L1406.66,393.508L1406.63,393.445L1406.61,393.382L1406.58,393.319L1406.56,393.256L1406.53,393.193L1406.51,393.129L1406.48,393.065L1406.46,393.002L1406.44,392.937L1406.41,392.873L1406.39,392.809L1406.37,392.744L1406.35,392.679L1406.33,392.614L1406.31,392.549L1406.29,392.483L1406.27,392.418L1406.25,392.352L1406.23,392.286L1406.21,392.22L1406.19,392.154L1406.18,392.088L1406.16,392.021L1406.14,391.954L1406.13,391.888L1406.11,391.821L1406.09,391.753L1406.08,391.686L1406.06,391.619L1406.05,391.551L1406.04,391.483L1406.02,391.415L1406.01,391.347L1406,391.279L1405.98,391.211L1405.97,391.142L1405.96,391.074L1405.95,391.005L1405.94,390.937L1405.93,390.901L1405.93,390.867L1405.92,390.833L1405.92,390.798L1405.91,390.763L1405.91,390.729L1405.9,390.694L1405.9,390.659L1405.89,390.624L1405.89,390.59L1405.89,390.555L1405.88,390.52L1405.88,390.485L1405.87,390.45L1405.87,390.415L1405.87,390.38L1405.86,390.345L1405.86,390.31L1405.86,390.275L1405.85,390.24L1405.85,390.205L1405.85,390.17L1405.85,390.135L1405.84,390.1L1405.84,390.064L1405.84,390.029L1405.83,389.994L1405.83,389.959L1405.83,389.923L1405.83,389.888L1405.83,389.853L1405.82,389.817L1405.82,389.782L1405.82,389.746L1405.82,389.711L1405.82,389.675L1405.82,389.64L1405.82,389.604L1405.81,389.569L1405.81,389.533L1405.81,389.497L1405.81,389.462L1405.81,389.426L1405.81,389.391L1405.81,389.355L1405.81,389.319L1405.81,389.283L1405.81,389.247L1405.81,389.212L1405.81,389.176L1405.81,389.14L1405.81,389.104L1405.81,389.069L1405.81,389.033L1405.81,388.998L1405.81,388.962L1405.81,388.926L1405.82,388.891L1405.82,388.855L1405.82,388.82L1405.82,388.784L1405.82,388.749L1405.82,388.713L1405.82,388.678L1405.83,388.642L1405.83,388.607L1405.83,388.572L1405.83,388.536L1405.83,388.501L1405.84,388.466L1405.84,388.431L1405.84,388.395L1405.85,388.36L1405.85,388.325L1405.85,388.29L1405.85,388.255L1405.86,388.22L1405.86,388.185L1405.86,388.15L1405.87,388.115L1405.87,388.08L1405.87,388.045L1405.88,388.01L1405.88,387.975L1405.89,387.94L1405.89,387.905L1405.89,387.871L1405.9,387.836L1405.9,387.801L1405.91,387.766L1405.91,387.732L1405.92,387.697L1405.92,387.662L1405.93,387.628L1405.93,387.594L1405.94,387.558L1405.95,387.49L1405.96,387.421L1405.97,387.353L1405.98,387.284L1406,387.216L1406.01,387.148L1406.02,387.08L1406.04,387.012L1406.05,386.944L1406.06,386.876L1406.08,386.809L1406.09,386.742L1406.11,386.674L1406.13,386.607L1406.14,386.541L1406.16,386.474L1406.18,386.407L1406.19,386.341L1406.21,386.275L1406.23,386.209L1406.25,386.143L1406.27,386.077L1406.29,386.012L1406.31,385.946L1406.33,385.881L1406.35,385.816L1406.37,385.751L1406.39,385.686L1406.41,385.622L1406.44,385.558L1406.46,385.493L1406.48,385.43L1406.51,385.366L1406.53,385.302L1406.56,385.239L1406.58,385.176L1406.61,385.113L1406.63,385.05L1406.66,384.987L1406.68,384.925L1406.71,384.862L1406.74,384.8L1406.76,384.738L1406.79,384.677L1406.82,384.615L1406.85,384.554L1406.88,384.493L1406.91,384.432L1406.93,384.372L1406.96,384.311L1407,384.251L1407.03,384.191L1407.06,384.131L1407.09,384.072L1407.12,384.012L1407.15,383.953L1407.18,383.894L1407.22,383.836L1407.25,383.777L1407.28,383.719L1407.32,383.661L1407.35,383.603L1407.38,383.545L1407.42,383.488L1407.45,383.431L1407.49,383.374L1407.52,383.317L1407.56,383.261L1407.6,383.205L1407.63,383.149L1407.67,383.093L1407.71,383.038L1407.75,382.982L1407.78,382.927L1407.82,382.873L1407.86,382.818L1407.9,382.764L1407.94,382.71L1407.98,382.656L1408.02,382.602L1408.06,382.549L1408.1,382.496L1408.14,382.443L1408.18,382.391L1408.22,382.338L1408.26,382.286L1408.3,382.235L1408.35,382.183L1408.39,382.132L1408.43,382.081L1408.47,382.03L1408.52,381.98L1408.56,381.93L1408.61,381.88L1408.65,381.83L1408.69,381.781L1408.74,381.731L1408.79,381.683L1408.83,381.634L1408.88,381.586L1408.92,381.538L1408.97,381.49L1409.02,381.443L1409.06,381.395L1409.11,381.349L1409.16,381.302L1409.2,381.255L1409.25,381.209L1409.3,381.164L1409.35,381.118L1409.4,381.073L1409.45,381.028L1409.5,380.983L1409.55,380.939L1409.6,380.895L1409.65,380.851L1409.7,380.808L1409.75,380.765L1409.8,380.722L1409.85,380.679L1409.9,380.637L1409.95,380.595L1410.01,380.554L1410.06,380.512L1410.11,380.471L1410.16,380.431L1410.21,380.39L1410.27,380.35L1410.32,380.31L1410.38,380.271L1410.43,380.232L1410.48,380.193L1410.54,380.154L1410.59,380.116L1410.65,380.078L1410.7,380.041L1410.76,380.003L1410.82,379.966L1410.87,379.93L1410.93,379.893L1410.98,379.857L1411.04,379.822L1411.1,379.787L1411.15,379.752L1411.21,379.717L1411.27,379.683L1411.33,379.649L1411.38,379.615L1411.44,379.582L1411.5,379.549L1411.56,379.516L1411.62,379.484L1411.68,379.452L1411.74,379.421L1411.8,379.389L1411.86,379.359L1411.92,379.328L1411.98,379.298L1412.04,379.268L1412.1,379.239L1412.16,379.21L1412.22,379.181L1412.28,379.153L1412.34,379.125L1412.4,379.097L1412.47,379.07L1412.53,379.043L1412.59,379.016L1412.65,378.99L1412.72,378.964L1412.78,378.939L1412.84,378.914L1412.9,378.889L1412.97,378.865L1413.03,378.841L1413.1,378.817L1413.16,378.794L1413.22,378.771L1413.29,378.749L1413.35,378.727L1413.42,378.705L1413.48,378.684L1413.55,378.663L1413.61,378.642L1413.68,378.622L1413.74,378.602L1413.81,378.583L1413.88,378.564L1413.94,378.546L1414.01,378.527L1414.07,378.51L1414.14,378.492L1414.21,378.475L1414.27,378.459L1414.34,378.443L1414.41,378.427L1414.48,378.412L1414.54,378.397L1414.61,378.382L1414.68,378.368L1414.75,378.354L1414.81,378.341L1414.88,378.328L1414.95,378.316L1415.02,378.304L1415.09,378.292L1415.16,378.281L1415.22,378.271L1415.26,378.265L1415.29,378.26L1415.33,378.255L1415.36,378.25L1415.4,378.245L1415.43,378.241L1415.47,378.236L1415.5,378.232L1415.54,378.227L1415.57,378.223L1415.61,378.219L1415.64,378.215L1415.68,378.211L1415.71,378.207L1415.75,378.203L1415.78,378.2L1415.82,378.196L1415.85,378.193L1415.89,378.19L1415.92,378.186L1415.96,378.183L1415.99,378.18L1416.03,378.178L1416.06,378.175L1416.1,378.172L1416.13,378.17L1416.17,378.167L1416.2,378.165L1416.24,378.163L1416.27,378.161L1416.31,378.159L1416.34,378.157L1416.38,378.155L1416.41,378.154L1416.45,378.152L1416.49,378.151L1416.52,378.149L1416.56,378.148L1416.59,378.147L1416.63,378.146L1416.66,378.145L1416.7,378.145L1416.74,378.144L1416.77,378.143L1416.81,378.143L1416.84,378.143L1416.88,378.143L1416.91,378.142L1416.95,378.143ZM1416.89,382.143L1416.87,382.143L1416.84,382.143L1416.82,382.143L1416.8,382.143L1416.78,382.144L1416.75,382.144L1416.73,382.145L1416.71,382.145L1416.68,382.146L1416.66,382.147L1416.64,382.148L1416.62,382.149L1416.59,382.15L1416.57,382.151L1416.55,382.152L1416.52,382.153L1416.5,382.154L1416.48,382.156L1416.45,382.157L1416.43,382.158L1416.41,382.16L1416.39,382.162L1416.37,382.163L1416.34,382.165L1416.32,382.167L1416.3,382.169L1416.28,382.171L1416.25,382.173L1416.23,382.175L1416.21,382.177L1416.18,382.179L1416.16,382.182L1416.14,382.184L1416.12,382.186L1416.1,382.189L1416.07,382.192L1416.05,382.194L1416.03,382.197L1416.01,382.2L1415.98,382.203L1415.96,382.205L1415.94,382.208L1415.92,382.212L1415.9,382.215L1415.87,382.218L1415.85,382.221L1415.83,382.224L1415.79,382.231L1415.74,382.238L1415.7,382.246L1415.65,382.254L1415.61,382.262L1415.57,382.27L1415.52,382.278L1415.48,382.287L1415.44,382.296L1415.39,382.305L1415.35,382.315L1415.31,382.324L1415.27,382.334L1415.22,382.345L1415.18,382.355L1415.14,382.366L1415.09,382.377L1415.05,382.388L1415.01,382.4L1414.97,382.412L1414.93,382.424L1414.88,382.436L1414.84,382.449L1414.8,382.462L1414.76,382.475L1414.72,382.488L1414.68,382.502L1414.63,382.515L1414.59,382.529L1414.55,382.544L1414.51,382.558L1414.47,382.573L1414.43,382.588L1414.39,382.603L1414.35,382.619L1414.31,382.635L1414.27,382.651L1414.23,382.667L1414.19,382.683L1414.15,382.7L1414.11,382.717L1414.07,382.734L1414.03,382.752L1413.99,382.769L1413.95,382.787L1413.91,382.805L1413.87,382.824L1413.84,382.842L1413.8,382.861L1413.76,382.88L1413.72,382.899L1413.68,382.919L1413.64,382.938L1413.61,382.958L1413.57,382.978L1413.53,382.999L1413.49,383.019L1413.45,383.04L1413.42,383.061L1413.38,383.083L1413.34,383.104L1413.31,383.126L1413.27,383.148L1413.23,383.17L1413.19,383.192L1413.16,383.215L1413.12,383.238L1413.09,383.261L1413.05,383.284L1413.01,383.307L1412.98,383.331L1412.94,383.355L1412.91,383.379L1412.87,383.403L1412.84,383.428L1412.8,383.452L1412.77,383.477L1412.73,383.502L1412.7,383.528L1412.66,383.553L1412.63,383.579L1412.6,383.605L1412.56,383.631L1412.53,383.657L1412.5,383.684L1412.46,383.71L1412.43,383.737L1412.4,383.764L1412.36,383.792L1412.33,383.819L1412.3,383.847L1412.27,383.875L1412.23,383.903L1412.2,383.931L1412.17,383.959L1412.14,383.988L1412.11,384.017L1412.08,384.046L1412.04,384.075L1412.01,384.104L1411.98,384.134L1411.95,384.164L1411.92,384.193L1411.89,384.224L1411.86,384.254L1411.83,384.284L1411.8,384.315L1411.77,384.346L1411.74,384.377L1411.71,384.408L1411.68,384.439L1411.65,384.471L1411.63,384.503L1411.6,384.534L1411.57,384.566L1411.54,384.599L1411.51,384.631L1411.49,384.663L1411.46,384.696L1411.43,384.729L1411.4,384.762L1411.38,384.795L1411.35,384.829L1411.32,384.862L1411.3,384.896L1411.27,384.93L1411.25,384.964L1411.22,384.998L1411.19,385.032L1411.17,385.067L1411.14,385.101L1411.12,385.136L1411.1,385.171L1411.07,385.206L1411.05,385.241L1411.02,385.277L1411,385.312L1410.97,385.348L1410.95,385.384L1410.93,385.42L1410.9,385.456L1410.88,385.492L1410.86,385.528L1410.84,385.565L1410.82,385.602L1410.79,385.639L1410.77,385.676L1410.75,385.713L1410.73,385.75L1410.71,385.787L1410.69,385.825L1410.67,385.862L1410.64,385.9L1410.62,385.938L1410.61,385.976L1410.59,386.014L1410.57,386.053L1410.55,386.091L1410.53,386.13L1410.51,386.168L1410.49,386.207L1410.47,386.246L1410.45,386.285L1410.44,386.325L1410.42,386.364L1410.4,386.403L1410.38,386.443L1410.37,386.483L1410.35,386.522L1410.33,386.563L1410.32,386.603L1410.3,386.643L1410.29,386.683L1410.27,386.723L1410.26,386.764L1410.24,386.805L1410.23,386.846L1410.21,386.886L1410.2,386.927L1410.18,386.969L1410.17,387.01L1410.15,387.051L1410.14,387.093L1410.13,387.134L1410.12,387.176L1410.1,387.218L1410.09,387.259L1410.08,387.302L1410.07,387.344L1410.06,387.386L1410.04,387.428L1410.03,387.471L1410.02,387.513L1410.01,387.556L1410,387.598L1409.99,387.641L1409.98,387.684L1409.97,387.727L1409.96,387.77L1409.95,387.814L1409.94,387.857L1409.94,387.9L1409.93,387.944L1409.92,387.988L1409.91,388.031L1409.91,388.075L1409.9,388.119L1409.89,388.164L1409.89,388.185L1409.88,388.207L1409.88,388.229L1409.88,388.251L1409.88,388.273L1409.87,388.296L1409.87,388.318L1409.87,388.34L1409.86,388.362L1409.86,388.385L1409.86,388.407L1409.86,388.429L1409.85,388.452L1409.85,388.474L1409.85,388.496L1409.85,388.519L1409.84,388.541L1409.84,388.564L1409.84,388.586L1409.84,388.609L1409.84,388.631L1409.83,388.654L1409.83,388.676L1409.83,388.699L1409.83,388.721L1409.83,388.744L1409.83,388.767L1409.82,388.789L1409.82,388.812L1409.82,388.835L1409.82,388.857L1409.82,388.88L1409.82,388.903L1409.82,388.926L1409.82,388.949L1409.82,388.972L1409.81,388.994L1409.81,389.017L1409.81,389.04L1409.81,389.063L1409.81,389.086L1409.81,389.109L1409.81,389.132L1409.81,389.155L1409.81,389.178L1409.81,389.201L1409.81,389.225L1409.81,389.247L1409.81,389.294L1409.81,389.34L1409.81,389.386L1409.81,389.432L1409.81,389.478L1409.82,389.523L1409.82,389.569L1409.82,389.615L1409.82,389.66L1409.82,389.706L1409.83,389.751L1409.83,389.796L1409.83,389.841L1409.84,389.886L1409.84,389.931L1409.85,389.976L1409.85,390.021L1409.86,390.066L1409.86,390.11L1409.87,390.155L1409.87,390.199L1409.88,390.244L1409.88,390.288L1409.89,390.331L1409.9,390.376L1409.91,390.42L1409.91,390.464L1409.92,390.507L1409.93,390.551L1409.94,390.595L1409.94,390.638L1409.95,390.681L1409.96,390.725L1409.97,390.768L1409.98,390.811L1409.99,390.854L1410,390.897L1410.01,390.939L1410.02,390.982L1410.03,391.024L1410.04,391.067L1410.06,391.109L1410.07,391.151L1410.08,391.193L1410.09,391.236L1410.1,391.277L1410.12,391.319L1410.13,391.361L1410.14,391.402L1410.15,391.444L1410.17,391.485L1410.18,391.526L1410.2,391.568L1410.21,391.609L1410.23,391.649L1410.24,391.69L1410.26,391.731L1410.27,391.771L1410.29,391.812L1410.3,391.852L1410.32,391.892L1410.33,391.932L1410.35,391.972L1410.37,392.012L1410.38,392.052L1410.4,392.092L1410.42,392.131L1410.44,392.17L1410.45,392.21L1410.47,392.249L1410.49,392.288L1410.51,392.327L1410.53,392.365L1410.55,392.404L1410.57,392.442L1410.59,392.481L1410.61,392.519L1410.62,392.557L1410.64,392.595L1410.67,392.633L1410.69,392.67L1410.71,392.708L1410.73,392.745L1410.75,392.782L1410.77,392.819L1410.79,392.856L1410.82,392.893L1410.84,392.93L1410.86,392.967L1410.88,393.003L1410.9,393.039L1410.93,393.075L1410.95,393.111L1410.97,393.147L1411,393.183L1411.02,393.218L1411.05,393.254L1411.07,393.289L1411.1,393.324L1411.12,393.359L1411.14,393.394L1411.17,393.428L1411.19,393.463L1411.22,393.497L1411.25,393.531L1411.27,393.565L1411.3,393.599L1411.32,393.633L1411.35,393.666L1411.38,393.7L1411.4,393.733L1411.43,393.766L1411.46,393.799L1411.49,393.832L1411.51,393.864L1411.54,393.896L1411.57,393.929L1411.6,393.961L1411.63,393.992L1411.65,394.024L1411.68,394.056L1411.71,394.087L1411.74,394.118L1411.77,394.149L1411.8,394.18L1411.83,394.211L1411.86,394.241L1411.89,394.271L1411.92,394.301L1411.95,394.331L1411.98,394.361L1412.01,394.391L1412.04,394.42L1412.08,394.449L1412.11,394.478L1412.14,394.507L1412.17,394.536L1412.2,394.564L1412.23,394.592L1412.27,394.62L1412.3,394.648L1412.33,394.676L1412.36,394.703L1412.4,394.731L1412.43,394.758L1412.46,394.785L1412.5,394.811L1412.53,394.838L1412.56,394.864L1412.6,394.89L1412.63,394.916L1412.66,394.942L1412.7,394.967L1412.73,394.993L1412.77,395.018L1412.8,395.043L1412.84,395.067L1412.87,395.092L1412.91,395.116L1412.94,395.14L1412.98,395.164L1413.01,395.188L1413.05,395.211L1413.09,395.234L1413.12,395.257L1413.16,395.28L1413.19,395.303L1413.23,395.325L1413.27,395.347L1413.31,395.369L1413.34,395.391L1413.38,395.412L1413.42,395.434L1413.45,395.455L1413.49,395.476L1413.53,395.496L1413.57,395.517L1413.61,395.537L1413.64,395.557L1413.68,395.576L1413.72,395.596L1413.76,395.615L1413.8,395.634L1413.84,395.653L1413.87,395.671L1413.91,395.69L1413.95,395.708L1413.99,395.726L1414.03,395.743L1414.07,395.761L1414.11,395.778L1414.15,395.795L1414.19,395.812L1414.23,395.828L1414.27,395.844L1414.31,395.86L1414.35,395.876L1414.39,395.892L1414.43,395.907L1414.47,395.922L1414.51,395.937L1414.55,395.951L1414.59,395.966L1414.63,395.98L1414.68,395.993L1414.72,396.007L1414.76,396.02L1414.8,396.033L1414.84,396.046L1414.88,396.059L1414.93,396.071L1414.97,396.083L1415.01,396.095L1415.05,396.107L1415.09,396.118L1415.14,396.129L1415.18,396.14L1415.22,396.15L1415.27,396.161L1415.31,396.171L1415.35,396.18L1415.39,396.19L1415.44,396.199L1415.48,396.208L1415.52,396.217L1415.57,396.225L1415.61,396.234L1415.65,396.241L1415.7,396.249L1415.74,396.257L1415.79,396.264L1415.83,396.271L1415.87,396.277L1415.92,396.283L1415.96,396.29L1416.01,396.295L1416.05,396.301L1416.1,396.306L1416.14,396.311L1416.18,396.316L1416.23,396.32L1416.28,396.324L1416.32,396.328L1416.37,396.332L1416.41,396.335L1416.45,396.338L1416.5,396.341L1416.55,396.343L1416.59,396.345L1416.64,396.347L1416.68,396.349L1416.73,396.35L1416.78,396.351L1416.82,396.352L1416.87,396.352L1416.91,396.352L1416.94,396.352L1416.96,396.352L1416.98,396.352L1417.01,396.352L1417.03,396.352L1417.05,396.351L1417.08,396.351L1417.1,396.35L1417.12,396.35L1417.14,396.349L1417.17,396.348L1417.19,396.347L1417.21,396.346L1417.24,396.345L1417.26,396.344L1417.28,396.343L1417.3,396.342L1417.33,396.341L1417.35,396.339L1417.37,396.338L1417.39,396.337L1417.42,396.335L1417.44,396.333L1417.46,396.332L1417.49,396.33L1417.51,396.328L1417.53,396.326L1417.55,396.324L1417.58,396.322L1417.6,396.32L1417.62,396.318L1417.64,396.316L1417.66,396.313L1417.69,396.311L1417.71,396.309L1417.73,396.306L1417.76,396.303L1417.78,396.301L1417.8,396.298L1417.82,396.295L1417.84,396.292L1417.87,396.29L1417.89,396.286L1417.91,396.283L1417.93,396.28L1417.95,396.277L1417.98,396.274L1418,396.271L1418.04,396.264L1418.09,396.257L1418.13,396.249L1418.17,396.241L1418.22,396.234L1418.26,396.225L1418.3,396.217L1418.35,396.208L1418.39,396.199L1418.43,396.19L1418.48,396.18L1418.52,396.171L1418.56,396.161L1418.61,396.15L1418.65,396.14L1418.69,396.129L1418.73,396.118L1418.78,396.107L1418.82,396.095L1418.86,396.083L1418.9,396.071L1418.94,396.059L1418.99,396.046L1419.03,396.033L1419.07,396.02L1419.11,396.007L1419.15,395.993L1419.19,395.98L1419.23,395.966L1419.28,395.951L1419.32,395.937L1419.36,395.922L1419.4,395.907L1419.44,395.892L1419.48,395.876L1419.52,395.86L1419.56,395.844L1419.6,395.828L1419.64,395.812L1419.68,395.795L1419.72,395.778L1419.76,395.761L1419.8,395.743L1419.84,395.726L1419.88,395.708L1419.91,395.69L1419.95,395.671L1419.99,395.653L1420.03,395.634L1420.07,395.615L1420.11,395.596L1420.15,395.576L1420.18,395.557L1420.22,395.537L1420.26,395.516L1420.3,395.496L1420.34,395.475L1420.37,395.455L1420.41,395.434L1420.45,395.412L1420.49,395.391L1420.52,395.369L1420.56,395.347L1420.6,395.325L1420.63,395.303L1420.67,395.28L1420.71,395.257L1420.74,395.234L1420.78,395.211L1420.81,395.188L1420.85,395.164L1420.88,395.14L1420.92,395.116L1420.95,395.092L1420.99,395.067L1421.03,395.043L1421.06,395.018L1421.1,394.993L1421.13,394.967L1421.16,394.942L1421.2,394.916L1421.23,394.89L1421.27,394.864L1421.3,394.838L1421.33,394.811L1421.37,394.785L1421.4,394.758L1421.43,394.731L1421.46,394.703L1421.5,394.676L1421.53,394.648L1421.56,394.62L1421.6,394.592L1421.63,394.564L1421.66,394.536L1421.69,394.507L1421.72,394.478L1421.75,394.449L1421.79,394.42L1421.82,394.391L1421.85,394.361L1421.88,394.331L1421.91,394.301L1421.94,394.271L1421.97,394.241L1422,394.211L1422.03,394.18L1422.06,394.149L1422.09,394.118L1422.12,394.087L1422.14,394.056L1422.17,394.024L1422.2,393.992L1422.23,393.961L1422.26,393.929L1422.29,393.896L1422.32,393.864L1422.34,393.832L1422.37,393.799L1422.4,393.766L1422.42,393.733L1422.45,393.7L1422.48,393.666L1422.5,393.633L1422.53,393.599L1422.56,393.565L1422.58,393.531L1422.61,393.497L1422.63,393.463L1422.66,393.428L1422.68,393.394L1422.71,393.359L1422.73,393.324L1422.76,393.289L1422.78,393.254L1422.81,393.218L1422.83,393.183L1422.85,393.147L1422.88,393.111L1422.9,393.075L1422.92,393.039L1422.95,393.003L1422.97,392.967L1422.99,392.93L1423.01,392.893L1423.04,392.856L1423.06,392.819L1423.08,392.782L1423.1,392.745L1423.12,392.708L1423.14,392.67L1423.16,392.633L1423.18,392.595L1423.2,392.557L1423.22,392.519L1423.24,392.481L1423.26,392.442L1423.28,392.404L1423.3,392.365L1423.32,392.327L1423.34,392.288L1423.36,392.249L1423.37,392.21L1423.39,392.17L1423.41,392.131L1423.43,392.092L1423.44,392.052L1423.46,392.012L1423.48,391.972L1423.49,391.933L1423.51,391.892L1423.53,391.852L1423.54,391.812L1423.56,391.771L1423.57,391.731L1423.59,391.69L1423.6,391.649L1423.62,391.609L1423.63,391.568L1423.65,391.527L1423.66,391.485L1423.67,391.444L1423.69,391.402L1423.7,391.361L1423.71,391.319L1423.73,391.277L1423.74,391.235L1423.75,391.194L1423.76,391.151L1423.77,391.109L1423.78,391.067L1423.8,391.024L1423.81,390.982L1423.82,390.939L1423.83,390.897L1423.84,390.854L1423.85,390.811L1423.86,390.768L1423.87,390.725L1423.87,390.681L1423.88,390.638L1423.89,390.595L1423.9,390.551L1423.91,390.507L1423.91,390.464L1423.92,390.42L1423.93,390.376L1423.94,390.33L1423.94,390.31L1423.94,390.288L1423.95,390.266L1423.95,390.244L1423.95,390.221L1423.96,390.199L1423.96,390.177L1423.96,390.155L1423.96,390.133L1423.97,390.11L1423.97,390.088L1423.97,390.066L1423.98,390.043L1423.98,390.021L1423.98,389.999L1423.98,389.976L1423.98,389.954L1423.99,389.931L1423.99,389.909L1423.99,389.886L1423.99,389.864L1423.99,389.841L1424,389.819L1424,389.796L1424,389.774L1424,389.751L1424,389.728L1424,389.706L1424.01,389.683L1424.01,389.66L1424.01,389.637L1424.01,389.615L1424.01,389.592L1424.01,389.569L1424.01,389.546L1424.01,389.523L1424.01,389.501L1424.02,389.478L1424.02,389.455L1424.02,389.432L1424.02,389.409L1424.02,389.386L1424.02,389.363L1424.02,389.34L1424.02,389.317L1424.02,389.294L1424.02,389.271L1424.02,389.247L1424.02,389.224L1424.02,389.201L1424.02,389.178L1424.02,389.155L1424.02,389.132L1424.02,389.109L1424.02,389.086L1424.02,389.063L1424.02,389.04L1424.02,389.017L1424.01,388.994L1424.01,388.972L1424.01,388.949L1424.01,388.926L1424.01,388.903L1424.01,388.88L1424.01,388.858L1424.01,388.835L1424.01,388.812L1424,388.789L1424,388.767L1424,388.744L1424,388.721L1424,388.699L1424,388.676L1423.99,388.654L1423.99,388.631L1423.99,388.609L1423.99,388.586L1423.99,388.564L1423.98,388.541L1423.98,388.519L1423.98,388.496L1423.98,388.474L1423.98,388.452L1423.97,388.429L1423.97,388.407L1423.97,388.385L1423.96,388.362L1423.96,388.34L1423.96,388.318L1423.96,388.296L1423.95,388.274L1423.95,388.251L1423.95,388.229L1423.94,388.207L1423.94,388.185L1423.94,388.165L1423.93,388.119L1423.92,388.075L1423.91,388.031L1423.91,387.988L1423.9,387.944L1423.89,387.9L1423.88,387.857L1423.87,387.814L1423.87,387.77L1423.86,387.727L1423.85,387.684L1423.84,387.641L1423.83,387.598L1423.82,387.556L1423.81,387.513L1423.8,387.471L1423.78,387.428L1423.77,387.386L1423.76,387.344L1423.75,387.301L1423.74,387.26L1423.73,387.218L1423.71,387.176L1423.7,387.134L1423.69,387.093L1423.67,387.051L1423.66,387.01L1423.65,386.968L1423.63,386.927L1423.62,386.886L1423.6,386.846L1423.59,386.805L1423.57,386.764L1423.56,386.723L1423.54,386.683L1423.53,386.643L1423.51,386.603L1423.49,386.562L1423.48,386.523L1423.46,386.483L1423.44,386.443L1423.43,386.403L1423.41,386.364L1423.39,386.325L1423.37,386.285L1423.36,386.246L1423.34,386.207L1423.32,386.168L1423.3,386.13L1423.28,386.091L1423.26,386.053L1423.24,386.014L1423.22,385.976L1423.2,385.938L1423.18,385.9L1423.16,385.862L1423.14,385.825L1423.12,385.787L1423.1,385.75L1423.08,385.713L1423.06,385.676L1423.04,385.639L1423.01,385.602L1422.99,385.565L1422.97,385.528L1422.95,385.492L1422.92,385.456L1422.9,385.42L1422.88,385.384L1422.85,385.348L1422.83,385.312L1422.81,385.277L1422.78,385.241L1422.76,385.206L1422.73,385.171L1422.71,385.136L1422.68,385.101L1422.66,385.067L1422.63,385.032L1422.61,384.998L1422.58,384.964L1422.56,384.93L1422.53,384.896L1422.5,384.862L1422.48,384.829L1422.45,384.795L1422.42,384.762L1422.4,384.729L1422.37,384.696L1422.34,384.663L1422.32,384.631L1422.29,384.599L1422.26,384.566L1422.23,384.534L1422.2,384.503L1422.17,384.471L1422.14,384.439L1422.12,384.408L1422.09,384.377L1422.06,384.346L1422.03,384.315L1422,384.284L1421.97,384.254L1421.94,384.224L1421.91,384.194L1421.88,384.164L1421.85,384.134L1421.82,384.104L1421.79,384.075L1421.75,384.046L1421.72,384.017L1421.69,383.988L1421.66,383.959L1421.63,383.931L1421.6,383.903L1421.56,383.875L1421.53,383.847L1421.5,383.819L1421.46,383.792L1421.43,383.764L1421.4,383.737L1421.37,383.71L1421.33,383.684L1421.3,383.657L1421.27,383.631L1421.23,383.605L1421.2,383.579L1421.16,383.553L1421.13,383.528L1421.1,383.502L1421.06,383.477L1421.03,383.452L1420.99,383.428L1420.95,383.403L1420.92,383.379L1420.88,383.355L1420.85,383.331L1420.81,383.307L1420.78,383.284L1420.74,383.261L1420.71,383.238L1420.67,383.215L1420.63,383.192L1420.6,383.17L1420.56,383.148L1420.52,383.126L1420.49,383.104L1420.45,383.083L1420.41,383.061L1420.37,383.04L1420.34,383.02L1420.3,382.999L1420.26,382.979L1420.22,382.958L1420.18,382.938L1420.15,382.919L1420.11,382.899L1420.07,382.88L1420.03,382.861L1419.99,382.842L1419.95,382.824L1419.91,382.805L1419.88,382.787L1419.84,382.769L1419.8,382.752L1419.76,382.734L1419.72,382.717L1419.68,382.7L1419.64,382.683L1419.6,382.667L1419.56,382.651L1419.52,382.635L1419.48,382.619L1419.44,382.603L1419.4,382.588L1419.36,382.573L1419.32,382.558L1419.28,382.544L1419.23,382.529L1419.19,382.515L1419.15,382.502L1419.11,382.488L1419.07,382.475L1419.03,382.462L1418.99,382.449L1418.94,382.436L1418.9,382.424L1418.86,382.412L1418.82,382.4L1418.78,382.388L1418.73,382.377L1418.69,382.366L1418.65,382.355L1418.61,382.345L1418.56,382.334L1418.52,382.324L1418.48,382.315L1418.43,382.305L1418.39,382.296L1418.35,382.287L1418.3,382.278L1418.26,382.27L1418.22,382.262L1418.17,382.254L1418.13,382.246L1418.09,382.238L1418.04,382.231L1418,382.224L1417.98,382.221L1417.95,382.218L1417.93,382.215L1417.91,382.212L1417.89,382.208L1417.87,382.205L1417.84,382.203L1417.82,382.2L1417.8,382.197L1417.78,382.194L1417.75,382.192L1417.73,382.189L1417.71,382.186L1417.69,382.184L1417.66,382.182L1417.64,382.179L1417.62,382.177L1417.6,382.175L1417.58,382.173L1417.55,382.171L1417.53,382.169L1417.51,382.167L1417.49,382.165L1417.46,382.163L1417.44,382.162L1417.42,382.16L1417.39,382.158L1417.37,382.157L1417.35,382.156L1417.33,382.154L1417.3,382.153L1417.28,382.152L1417.26,382.151L1417.24,382.15L1417.21,382.149L1417.19,382.148L1417.17,382.147L1417.14,382.146L1417.12,382.145L1417.1,382.145L1417.08,382.144L1417.05,382.144L1417.03,382.143L1417.01,382.143L1416.98,382.143L1416.96,382.143L1416.94,382.143L1416.91,382.143L1416.89,382.143Z" style="fill:rgb(64,63,65);"/>
    </g>
    <g transform="matrix(8.33333,0,0,8.33333,-11187.1,-2601.42)">
        <path d="M1404.63,388.788C1404.63,390.149 1405.74,391.252 1407.1,391.252C1408.46,391.252 1409.56,390.149 1409.56,388.788C1409.56,387.427 1408.46,386.324 1407.1,386.324C1405.74,386.324 1404.63,387.427 1404.63,388.788" style="fill:rgb(64,63,65);fill-rule:nonzero;"/>
    </g>
    <g transform="matrix(8.33333,0,0,8.33333,-11187.1,-2601.42)">
        <path d="M1433.61,426.677C1433.61,426.677 1458.26,414.061 1461.18,411.695L1464.11,409.329L1466.23,417.492L1467.87,424.295L1433.61,426.677Z" style="fill:rgb(255,196,45);fill-rule:nonzero;"/>
    </g>
    <g transform="matrix(8.33333,0,0,8.33333,-11187.1,-2601.42)">
        <clipPath id="_clip3">
            <rect x="1432.37" y="344.188" width="20.06" height="23.952"/>
        </clipPath>
        <g clip-path="url(#_clip3)">
            <g opacity="0.399994">
                <clipPath id="_clip4">
                    <rect x="1432.37" y="344.188" width="20.06" height="23.952"/>
                </clipPath>
                <g clip-path="url(#_clip4)">
                    <path d="M1433.61,344.188C1433.23,344.188 1432.81,344.224 1432.37,344.286L1432.37,368.14L1452.43,368.14L1452.43,355.732C1452.43,351.159 1433.61,344.188 1433.61,344.188" style="fill:rgb(255,196,45);fill-rule:nonzero;"/>
                </g>
            </g>
        </g>
    </g>
    <g transform="matrix(8.33333,0,0,8.33333,-11187.1,-2601.42)">
        <path d="M1465.4,456.742L1401.62,397.054L1396.19,418.002L1444.05,465.2C1451.74,463.657 1458.95,460.747 1465.4,456.742" style="fill:rgb(57,38,18);fill-rule:nonzero;"/>
    </g>
    <g transform="matrix(8.33333,0,0,8.33333,-11187.1,-2601.42)">
        <path d="M1407.12,389.257L1407.12,389.381L1407.13,389.504L1407.14,389.627L1407.14,389.75L1407.15,389.872L1407.16,389.994L1407.16,390.117L1407.17,390.239L1407.17,390.36L1407.18,390.482L1407.19,390.603L1407.19,390.724L1407.2,390.845L1407.2,390.966L1407.21,391.087L1407.21,391.207L1407.22,391.327L1407.23,391.447L1407.23,391.567L1407.23,391.686L1407.24,391.805L1407.24,391.925L1407.25,392.043L1407.25,392.162L1407.26,392.281L1407.26,392.399L1407.26,392.517L1407.27,392.635L1407.27,392.752L1407.27,392.87L1407.28,392.987L1407.28,393.104L1407.28,393.221L1407.29,393.337L1407.29,393.454L1407.29,393.57L1407.3,393.686L1407.3,393.802L1407.3,393.917L1407.3,394.032L1407.3,394.147L1407.31,394.262L1407.31,394.377L1407.31,394.491L1407.31,394.605L1407.31,394.719L1407.31,394.833L1407.32,394.947L1407.32,395.06L1407.32,395.173L1407.32,395.286L1407.32,395.399L1407.32,395.511L1407.32,395.623L1407.32,395.735L1407.32,395.847L1407.32,395.959L1407.32,396.07L1407.32,396.181L1407.32,396.292L1407.32,396.403L1407.32,396.513L1407.32,396.623L1407.32,396.733L1407.32,396.843L1407.32,396.953L1407.32,397.062L1407.32,397.171L1407.31,397.28L1407.31,397.388L1407.31,397.497L1407.31,397.605L1407.31,397.713L1407.31,397.82L1407.31,397.928L1407.3,398.035L1407.3,398.142L1407.3,398.249L1407.3,398.355L1407.3,398.461L1407.29,398.568L1407.29,398.673L1407.29,398.779L1407.29,398.884L1407.28,398.989L1407.28,399.094L1407.28,399.199L1407.27,399.303L1407.27,399.407L1407.27,399.511L1407.26,399.615L1407.26,399.718L1407.26,399.821L1407.25,399.924L1407.25,400.027L1407.25,400.13L1407.24,400.232L1407.24,400.334L1407.23,400.435L1407.23,400.537L1407.23,400.638L1407.22,400.739L1407.22,400.84L1407.21,400.94L1407.21,401.041L1407.2,401.141L1407.2,401.24L1407.19,401.34L1407.19,401.439L1407.18,401.538L1407.18,401.637L1407.17,401.735L1407.17,401.834L1407.16,401.932L1407.15,402.029L1407.15,402.127L1407.14,402.224L1407.14,402.321L1407.13,402.418L1407.13,402.514L1407.12,402.611L1407.11,402.707L1407.11,402.802L1407.1,402.898L1407.1,402.993L1407.09,403.088L1407.08,403.183L1407.08,403.277L1407.07,403.371L1407.06,403.465L1407.06,403.559L1407.05,403.652L1407.04,403.746L1407.03,403.838L1407.03,403.931L1407.02,404.023L1407.01,404.116L1407.01,404.207L1407,404.299L1406.99,404.39L1406.98,404.481L1406.97,404.572L1406.97,404.663L1406.96,404.753L1406.95,404.843L1406.94,404.933L1406.93,405.022L1406.93,405.111L1406.92,405.2L1406.91,405.289L1406.9,405.377L1406.89,405.466L1406.88,405.553L1406.88,405.641L1406.87,405.728L1406.86,405.815L1406.85,405.902L1406.84,405.989L1406.83,406.075L1406.82,406.161L1406.82,406.247L1406.81,406.332L1406.8,406.417L1406.79,406.502L1406.78,406.587L1406.77,406.671L1406.76,406.755L1406.75,406.839L1406.74,406.923L1406.72,407.088L1406.7,407.253L1406.68,407.417L1406.66,407.58L1406.64,407.742L1406.62,407.903L1406.6,408.062L1406.58,408.22L1406.56,408.377L1406.54,408.534L1406.52,408.688L1406.5,408.842L1406.48,408.995L1406.45,409.146L1406.43,409.297L1406.41,409.446L1406.39,409.594L1406.36,409.74L1406.34,409.886L1406.32,410.031L1406.29,410.174L1406.27,410.316L1406.25,410.457L1406.22,410.597L1406.2,410.735L1406.18,410.873L1406.15,411.009L1406.13,411.144L1406.1,411.277L1406.08,411.41L1406.05,411.541L1406.03,411.671L1406,411.8L1405.98,411.928L1405.95,412.055L1405.93,412.18L1405.9,412.304L1405.88,412.427L1405.85,412.548L1405.83,412.669L1405.8,412.788L1405.78,412.906L1405.75,413.022L1405.73,413.126L1405.7,413.231L1405.68,413.335L1405.65,413.439L1405.63,413.543L1405.61,413.647L1405.58,413.751L1405.56,413.855L1405.53,413.958L1405.51,414.062L1405.48,414.165L1405.45,414.268L1405.43,414.371L1405.4,414.474L1405.38,414.577L1405.35,414.679L1405.33,414.782L1405.3,414.884L1405.28,414.985L1405.25,415.087L1405.22,415.188L1405.2,415.289L1405.17,415.39L1405.14,415.49L1405.12,415.59L1405.09,415.69L1405.06,415.79L1405.04,415.889L1405.01,415.987L1404.98,416.086L1404.96,416.184L1404.93,416.281L1404.9,416.378L1404.88,416.475L1404.85,416.571L1404.82,416.667L1404.8,416.762L1404.77,416.857L1404.74,416.952L1404.71,417.046L1404.69,417.139L1404.66,417.232L1404.63,417.324L1404.61,417.416L1404.58,417.507L1404.56,417.598L1404.53,417.688L1404.5,417.778L1404.45,417.954L1404.4,418.129L1404.35,418.301L1404.3,418.47L1404.25,418.636L1404.2,418.8L1404.15,418.96L1404.1,419.117L1404.05,419.271L1404,419.422L1403.96,419.569L1403.91,419.713L1403.87,419.853L1403.83,419.989L1403.78,420.122L1403.74,420.25L1403.7,420.375L1403.66,420.495L1403.62,420.612L1403.59,420.723L1403.55,420.831L1403.52,420.934L1403.49,421.032L1403.45,421.125L1403.42,421.214L1403.4,421.298L1403.37,421.376L1403.35,421.45L1403.3,421.581L1403.26,421.69L1403.23,421.777L1403.21,421.841L1403.19,421.894L1403.16,421.983L1403.13,422.07L1403.1,422.157L1403.07,422.244L1403.04,422.33L1403.01,422.416L1402.98,422.501L1402.95,422.586L1402.92,422.67L1402.88,422.754L1402.86,422.837L1402.82,422.92L1402.79,423.003L1402.76,423.085L1402.73,423.166L1402.7,423.247L1402.67,423.328L1402.64,423.408L1402.58,423.567L1402.52,423.724L1402.46,423.879L1402.41,424.032L1402.35,424.183L1402.29,424.333L1402.23,424.48L1402.18,424.625L1402.12,424.769L1402.06,424.91L1402.01,425.049L1401.95,425.186L1401.9,425.321L1401.85,425.454L1401.79,425.585L1401.74,425.714L1401.69,425.841L1401.64,425.966L1401.59,426.088L1401.54,426.208L1401.49,426.326L1401.44,426.442L1401.39,426.555L1399.55,425.777L1399.59,425.666L1399.64,425.552L1399.69,425.437L1399.74,425.32L1399.79,425.201L1399.84,425.079L1399.89,424.956L1399.94,424.83L1399.99,424.702L1400.04,424.572L1400.1,424.441L1400.15,424.307L1400.2,424.171L1400.26,424.033L1400.32,423.894L1400.37,423.752L1400.43,423.608L1400.48,423.463L1400.54,423.315L1400.6,423.166L1400.65,423.015L1400.71,422.862L1400.77,422.706L1400.8,422.629L1400.83,422.55L1400.86,422.471L1400.89,422.391L1400.92,422.311L1400.95,422.231L1400.98,422.15L1401.01,422.069L1401.04,421.987L1401.07,421.905L1401.1,421.822L1401.13,421.739L1401.16,421.655L1401.19,421.571L1401.22,421.487L1401.25,421.402L1401.28,421.317L1401.31,421.232L1401.32,421.185L1401.34,421.125L1401.37,421.042L1401.41,420.936L1401.45,420.808L1401.48,420.737L1401.5,420.661L1401.53,420.579L1401.56,420.493L1401.59,420.401L1401.62,420.306L1401.65,420.205L1401.69,420.1L1401.72,419.991L1401.76,419.877L1401.8,419.759L1401.84,419.637L1401.88,419.511L1401.92,419.381L1401.96,419.248L1402.01,419.11L1402.05,418.969L1402.1,418.825L1402.14,418.677L1402.19,418.526L1402.24,418.372L1402.28,418.215L1402.33,418.055L1402.38,417.892L1402.43,417.726L1402.48,417.558L1402.53,417.387L1402.58,417.213L1402.61,417.126L1402.64,417.038L1402.66,416.949L1402.69,416.86L1402.71,416.77L1402.74,416.679L1402.77,416.589L1402.79,416.497L1402.82,416.405L1402.84,416.313L1402.87,416.22L1402.9,416.127L1402.92,416.033L1402.95,415.939L1402.98,415.845L1403,415.75L1403.03,415.655L1403.05,415.559L1403.08,415.463L1403.11,415.367L1403.13,415.27L1403.16,415.173L1403.18,415.076L1403.21,414.978L1403.24,414.881L1403.26,414.783L1403.29,414.684L1403.31,414.586L1403.34,414.487L1403.36,414.388L1403.39,414.289L1403.41,414.189L1403.44,414.09L1403.46,413.99L1403.49,413.89L1403.51,413.79L1403.54,413.69L1403.56,413.59L1403.59,413.489L1403.61,413.389L1403.63,413.288L1403.66,413.188L1403.68,413.087L1403.71,412.987L1403.73,412.886L1403.75,412.785L1403.78,412.685L1403.8,412.584L1403.82,412.474L1403.85,412.362L1403.87,412.248L1403.9,412.133L1403.92,412.017L1403.94,411.9L1403.97,411.782L1403.99,411.662L1404.02,411.541L1404.04,411.418L1404.07,411.295L1404.09,411.17L1404.11,411.044L1404.14,410.916L1404.16,410.787L1404.18,410.658L1404.21,410.526L1404.23,410.394L1404.25,410.26L1404.28,410.126L1404.3,409.989L1404.32,409.852L1404.34,409.714L1404.37,409.574L1404.39,409.433L1404.41,409.291L1404.43,409.148L1404.45,409.003L1404.47,408.857L1404.5,408.71L1404.52,408.562L1404.54,408.413L1404.56,408.263L1404.58,408.111L1404.6,407.959L1404.62,407.805L1404.64,407.65L1404.66,407.493L1404.68,407.336L1404.7,407.178L1404.72,407.018L1404.74,406.857L1404.75,406.695L1404.76,406.614L1404.77,406.533L1404.78,406.451L1404.79,406.368L1404.8,406.286L1404.81,406.203L1404.82,406.12L1404.83,406.037L1404.84,405.953L1404.84,405.87L1404.85,405.785L1404.86,405.701L1404.87,405.616L1404.88,405.531L1404.89,405.446L1404.89,405.361L1404.9,405.275L1404.91,405.189L1404.92,405.103L1404.93,405.016L1404.93,404.929L1404.94,404.842L1404.95,404.755L1404.96,404.667L1404.97,404.579L1404.97,404.491L1404.98,404.402L1404.99,404.314L1405,404.225L1405,404.135L1405.01,404.046L1405.02,403.956L1405.03,403.866L1405.03,403.776L1405.04,403.685L1405.05,403.594L1405.05,403.503L1405.06,403.412L1405.07,403.32L1405.07,403.228L1405.08,403.136L1405.09,403.044L1405.09,402.951L1405.1,402.858L1405.11,402.765L1405.11,402.672L1405.12,402.578L1405.12,402.484L1405.13,402.39L1405.14,402.295L1405.14,402.201L1405.15,402.106L1405.15,402.011L1405.16,401.915L1405.16,401.819L1405.17,401.723L1405.17,401.627L1405.18,401.531L1405.18,401.434L1405.19,401.337L1405.19,401.24L1405.2,401.142L1405.2,401.044L1405.21,400.946L1405.21,400.848L1405.22,400.75L1405.22,400.651L1405.23,400.552L1405.23,400.453L1405.24,400.353L1405.24,400.254L1405.24,400.154L1405.25,400.054L1405.25,399.953L1405.25,399.852L1405.26,399.752L1405.26,399.65L1405.27,399.549L1405.27,399.447L1405.27,399.345L1405.27,399.243L1405.28,399.141L1405.28,399.038L1405.28,398.936L1405.29,398.832L1405.29,398.729L1405.29,398.626L1405.29,398.522L1405.3,398.418L1405.3,398.314L1405.3,398.209L1405.3,398.104L1405.3,397.999L1405.31,397.894L1405.31,397.789L1405.31,397.683L1405.31,397.577L1405.31,397.471L1405.31,397.365L1405.32,397.258L1405.32,397.151L1405.32,397.044L1405.32,396.937L1405.32,396.829L1405.32,396.722L1405.32,396.614L1405.32,396.506L1405.32,396.397L1405.32,396.289L1405.32,396.18L1405.32,396.071L1405.32,395.961L1405.32,395.852L1405.32,395.742L1405.32,395.632L1405.32,395.522L1405.32,395.411L1405.32,395.301L1405.32,395.19L1405.32,395.079L1405.32,394.967L1405.31,394.856L1405.31,394.744L1405.31,394.632L1405.31,394.52L1405.31,394.408L1405.31,394.295L1405.3,394.182L1405.3,394.069L1405.3,393.956L1405.3,393.842L1405.3,393.729L1405.29,393.615L1405.29,393.501L1405.29,393.386L1405.28,393.272L1405.28,393.157L1405.28,393.042L1405.28,392.927L1405.27,392.812L1405.27,392.696L1405.27,392.58L1405.26,392.464L1405.26,392.348L1405.25,392.231L1405.25,392.115L1405.25,391.998L1405.24,391.881L1405.24,391.764L1405.23,391.646L1405.23,391.529L1405.22,391.411L1405.22,391.293L1405.21,391.174L1405.21,391.056L1405.2,390.937L1405.19,390.818L1405.19,390.699L1405.18,390.58L1405.18,390.46L1405.17,390.341L1405.17,390.221L1405.16,390.101L1405.15,389.98L1405.15,389.86L1405.14,389.739L1405.13,389.618L1405.13,389.497L1405.12,389.376L1405.11,389.254L1407.11,389.134L1407.12,389.257Z" style="fill:rgb(64,63,65);"/>
    </g>
    <g transform="matrix(8.33333,0,0,8.33333,-11187.1,-2601.42)">
        <path d="M1440.23,430.127C1440.23,430.127 1446.2,428.548 1452.43,437.16C1458.66,445.772 1457.09,454.087 1458.47,454.978C1459.85,455.869 1461.18,459.432 1461.18,459.432C1461.18,459.432 1440.28,443.591 1438.19,438.593C1436.09,433.595 1436.62,430.013 1436.62,430.013L1440.23,430.127Z" style="fill:rgb(255,196,45);fill-rule:nonzero;"/>
    </g>
    <g transform="matrix(8.33333,0,0,8.33333,-11187.1,-2601.42)">
        <path d="M1436.62,433.998C1436.62,433.998 1436.73,441.912 1432.55,447.554C1428.37,453.197 1416.21,456.936 1416.21,456.936C1416.21,456.936 1419.88,447.659 1423.83,440.925C1427.78,434.191 1436.62,430.014 1436.62,430.014" style="fill:rgb(191,145,45);fill-rule:nonzero;"/>
    </g>
    <g transform="matrix(8.33333,0,0,8.33333,-11187.1,-2601.42)">
        <path d="M1441.2,426.677C1441.2,430.72 1437.8,433.998 1433.61,433.998C1429.42,433.998 1426.02,430.72 1426.02,426.677C1426.02,422.634 1429.42,419.356 1433.61,419.356C1437.8,419.356 1441.2,422.634 1441.2,426.677" style="fill:rgb(255,196,45);fill-rule:nonzero;"/>
    </g>
    <g transform="matrix(8.33333,0,0,8.33333,-11187.1,-2601.42)">
        <path d="M1431.12,424.295L1432.37,427.211L1395.3,421.39L1399.4,405.85" style="fill:rgb(191,145,45);fill-rule:nonzero;"/>
    </g>
</svg>
